<?xml version="1.0" encoding="utf-8"?>
<!-- Generator: Adobe Illustrator 24.1.2, SVG Export Plug-In . SVG Version: 6.00 Build 0)  -->
<svg version="1.1" id="Layer_1" xmlns="http://www.w3.org/2000/svg" xmlns:xlink="http://www.w3.org/1999/xlink" x="0px" y="0px"
	 viewBox="0 0 2190.6 771.9" style="enable-background:new 0 0 2190.6 771.9;" xml:space="preserve">
<style type="text/css">
	.st0{fill:#FFFFFF;}
</style>
<g>
	
		<image style="overflow:visible;opacity:0.75;" width="2270" height="851" xlink:href="DA3E48C0.png"  transform="matrix(1 0 0 1 -32.7027 -32.5781)">
	</image>
	<g>
		<g>
			<g>
				<path class="st0" d="M785.7,392.7c-26.9,9.1-42.9,35.1-53.2,60.7l-0.1-42.6c-0.2-4.9-4-8.9-9-8.7c-4.7-0.1-8.6,4-8.7,8.7
					l0.3,41.5c-7.7,4.5-32.7,20.1-61.5,48.8c-0.8-13.4-2.6-24.7-4.9-33.3c-1.6-4.9-3-9.1-4.8-12.8c-3.5-6.5-16.4-7.2-21.2,0.5
					c0,0-9.4,13.8-21.1,29.5c-5.9,7.8-12.3,15.5-17.6,21c-6.5,6.3-10,8.1-10.2,2.9c-0.5-4,0.1-8.9,1.7-16.1
					c3.1-14.7,10.9-33.2,19.9-42.3c8.2-8.6,17.1-9.6,26.9-3.6c3.9,2.8,9.5,1.9,12.3-2c2.8-3.9,2.8-9.2-1.9-12.1
					c-18.2-11.8-37.4-8.1-50.3,5.6c-10.3,11.4-18.3,27.6-22.3,43.2c-0.5,0.4-1,0.9-1.4,1.5c-30.1,41-50.5,60.4-60.9,66.2
					c-7.7,4.1-9.6,0.3-11.6-5.4c-3-9.1-3.9-25.8-5.4-40.1c-1.7-12.4-2.5-32.4-17.8-34c-13-1.5-21.8,8.6-27.6,18.1
					c-8.4,13.1-14.2,26.7-18.8,39.3l-1.1-40.7c0.1-4.7-4-8.6-8.9-8.4c-4.7,0.1-8.5,4.2-8.4,8.9l0.5,31c-21.1,19-47.5,36.2-74.1,38.3
					c0-8-1-15.6-3-22.9c-3.5-11.7-9.6-22.7-20.3-28.8c-13.8-8-31.3-4.4-37.8,8.6c-5.1,9.9-4.3,22.4,2,33.2c-0.6,0.5-1.1,1.1-1.5,1.9
					c0,0-29.2,48-67.6,96.9c-19.4,24.4-40.9,48.8-62.3,67.6c-21.1,18.7-42.1,31-58.1,32.6s-26.9-2.8-35.5-12.7
					c-8.9-9.8-15.5-25.6-19.1-45.9c-7.2-40.6-2.7-98.5,9.6-157.3c12.6-59,32.9-119.4,56.4-165.4c11.6-23.1,24.2-42.9,36.2-57
					c24.8-29.1,56.6-34.3,65.4,4.3c4.2,19.3,2.6,41,2.6,41c-0.4,4.8,3.2,9,8,9.4c4.8,0.4,9-3.2,9.4-8c0,0,1.9-23.4-3.1-46.1
					c-5.5-26.8-26.3-47.2-51.3-42.4c-16,3-30.5,14.5-44.2,30.1c-13.7,15.8-26.5,36.7-38.8,60.5C47.1,404,26.4,465.3,13.6,525.8
					C1,585.9-4.1,645.1,3.7,689.7c4,22.4,11.2,41.4,23.4,54.7c12.1,13.3,29.9,20.4,50.5,18.2c22.5-2.1,45.2-17,67.8-36.8
					c22.5-19.8,44.8-44.9,64.6-70c20.1-25.5,37.7-50.7,50-69.2c1.5,17.2,9.5,36.5,26.5,37c11.9,0.1,21-8.2,26.8-17.9
					c5.4-8.9,8.6-20,10.4-31.7c27.9-3.2,55.4-18.2,75.3-33.5l1.1,66.3c0.3,4.4,3.5,7.9,7.8,8.4c4.5,0.5,8.4-2.3,9.4-6.6
					c0,0,6.7-52.3,16.5-77.6c4.9-12.6,10.4-25.1,15.9-33.4c2.5-3.8,7.5-10.7,9.8-10.3c2.1,0.7,3.3,13.2,3.8,18.6
					c1.4,13.6,1.5,30.4,6.2,43.8c6.8,18.3,18.7,25,36.3,15.3c13.2-7.5,29.2-22.6,51.4-50.8c0.9,3.9,2.5,7.5,5.3,10.4
					c10.2,10.4,24.9,2.7,33.6-6.1c6.7-6.6,13.3-14.9,19.4-23.1c6.3-8.2,12.1-16.6,16.1-22.7c2.1,7.3,3.9,19.1,4.9,33.6
					c0.2,3.8,0.3,8.2,0.3,12.4c-16.5,18.3-33.2,40.6-48.3,67.2c-25.3,45.3-36.5,88-37.8,120.9c-0.8,16.5,1,30.5,4.9,41.6
					c3.9,11.1,10.5,20,20.7,22.6c12,3.1,23.7-2.1,32.1-10.7c8.5-8.7,14.8-21,20.1-35.7c11.1-29.4,18.3-69.1,22.3-108.9
					c3.4-32,4.4-63.7,3.9-90.7c24.5-26.6,47.5-43.5,60.4-52l0.3,48.2c-0.1,5,4,8.9,8.7,8.7c4.4-0.1,8.2-3.3,8.7-7.6
					c0,0,2.7-24.9,11.8-51.7c9.2-26.5,25-53.8,46.7-61.3c4.7-1.5,7.3-6.5,5.5-11.1C795.3,393.5,790.4,391.2,785.7,392.7z M298,596.8
					c-3.9,6.6-7.8,9.1-11.4,9c-11.7-1.8-9.9-36.4-7.8-44.6c7.8,5.6,16.9,9.6,27,11.6C304.4,582.2,301.7,590.8,298,596.8z M282.7,541
					c-5.9-7.1-6.6-16.1-4.1-19.9c8.6-13.4,23.2,6.3,25.9,17.1c1,5,2,10.9,2.4,17C297.1,553,288.8,548.1,282.7,541z M633.6,613.7
					c-3.9,39-11.2,77.9-21.2,104.8c-5,13.2-10.6,24-16.6,29.7c-12.1,11.3-19.6,5.7-23.6-5.7c-3-8-4.7-20.3-4.1-35.1
					c1.4-29.6,11.7-69.9,35.8-113.1c10.6-18.5,21.9-34.9,33.4-49.2C637,566.8,636,590.2,633.6,613.7z"/>
			</g>
			<g>
				<path class="st0" d="M1663.1,178.6c-3.5,0.7-6.2,3.8-6.8,7.2l-2.5,16.3c-0.7,4.8,2.4,9.2,7.3,10.1c4.8,0.7,9.1-2.7,9.9-7.3
					l2.5-16.3c0.9-4.9-2.4-9.2-7.3-10.1C1665.2,178.4,1664.1,178.4,1663.1,178.6z"/>
			</g>
			<g>
				<path class="st0" d="M2190.3,159.3c-1.5-4.4-6.4-7-10.9-5.8c-28.4,8.6-56.3,26.7-79.7,47.3c-3.7-3.4-7.7-6.5-11.3-9.3
					c-13.6-10.8-24.9-20.4-26-26.8c-1.6-8,5-20.1,16.4-28.3c6-4.5,19.5-13.1,27.2-8.9c4.1,2.5,9.4,1.1,11.8-3
					c2.5-4.1,1.1-9.6-3-12.1c-12.9-7.6-34.2,0.6-46.9,10.2c-14.2,10.6-26.6,27-22.8,45.4c0.8,4.1,2.4,7.8,4.5,11.2
					c-29.6,40.2-49.7,59.3-60,64.9c-7.7,4.1-9.6,0.3-11.6-5.4c-3-9.1-3.9-25.8-5.4-40.1c-1.7-12.4-2.5-32.4-17.8-34
					c-13-1.5-21.8,8.6-27.6,18.1c-8.4,13.1-14.2,26.7-18.8,39.3l-1.1-40.7c0.1-4.7-4-8.6-8.9-8.4c-4.7,0.1-8.5,4.2-8.4,8.9l0.5,31
					c-21.1,19-47.5,36.2-74.1,38.3c0-8-1-15.6-3-22.9c-3.5-11.7-9.6-22.7-20.3-28.8c-13.8-8-31.3-4.4-37.8,8.6
					c-4.9,9.3-4.3,21,1,31.4c-38.4,50.2-64.5,75.8-80,84.7c-8.6,5.1-14.6,6.9-17.2-1.7c-3.1-8.5-2.6-26.3-0.6-40.8
					c2-14.5,4-22.4,4.8-26.5c1.3-4.7-1.7-9.6-6.3-10.6c-1.2-0.3-2.6-0.3-3.6-0.1c-3.5,0.7-6.3,3.2-6.9,6.7
					c-0.7,2.4-1.8,6.8-3.1,13.7c-0.2,0.4-0.4,0.8-0.5,1.2c0,0-10.9,30.7-25.9,62.6c-7.3,15.6-15.9,32-24.1,44.5
					c-8.6,12.3-17.4,20.4-21.5,21.8c-5.2,1.6-8.7-3.5-10.5-6.7c-4.6-7.4-8.4-21-11.1-38.1c-2.5-16.1-3.9-35.2-4.3-56.1
					c1.4-4.2,22.9-70.6,40.4-139.2c43-11.6,87.2-20.3,132.2-26.2c4.9-0.4,8.1-5,7.7-9.6c-0.7-4.8-5-8.4-9.9-7.7
					c-24.3,3-48.4,7.1-72,12c-17.8,3.6-35.8,7.6-53.4,12.3c7.6-30.6,13.7-60.1,16.1-83.6c1.6-13.6,2.1-25.1,0-34
					c-2.1-10.4-9.6-18.5-19.1-17.7c-12.7,1.5-19.7,14.6-23.9,23.7c-5.5,12.5-10.6,29.3-14.8,49.3c-5.3,22.7-9.8,49.6-13.2,77.7
					c-33,10.4-65.5,22.3-97.6,35.5c-4.4,1.7-6.6,6.9-4.6,11.2c1.8,4.6,6.9,6.6,11.2,4.9c29.4-12.1,59-22.9,88.9-32.3
					c-1.4,14.7-2.7,29.9-3.8,45.1c-1.6,25-2.3,49.7-2,72.7c-0.2,0.3-0.3,0.5-0.4,0.8c0,0-8.7,19.8-21.3,39.2
					c-5.2,8.3-26.8,43.7-37.1,38c-5-2.8-6.9-16.3-7.8-23c-2-15.4-1.2-31.6-1.2-31.6c0.2-4.2-2.5-8.1-6.6-9.2c-4-0.8-8.3,1.2-10,5.1
					c0,0-8.8,19.2-20.4,38.2c-4.9,7.1-20.9,33.3-30.4,32.8c-7.4-6.5-4.8-28.9-3.7-35.5c0.6-3.8,1.5-7.7,2.5-11.6
					c1-2.3,1.6-3.6,1.6-3.6c0.5-1.2,0.7-2.5,0.6-3.7c5.3-16,13.9-31.3,24.5-39.6c10-7.9,16.4-6.4,22.2-4c5.8,2.7,9.5,7.2,9.5,7.2
					c2.9,3.6,8.6,4.3,12.1,1.1c3.8-3,4.4-8.4,1.4-12.2c0,0-6-7.6-16-11.9c-13.7-6.1-27.8-3.4-40,6.2c-16.7,12.9-27.2,33.9-32.6,54.9
					c-3.8,8.7-12.8,28.5-24.3,48.1c-7.8,13.2-16.5,26.3-24.8,35.5c-14.8,15.8-24.9,15.1-30.5,2.4c-4.1-9.1-7.3-23.4-9.4-40.7
					c-0.9-7.3-1.8-15.7-2.4-24.1c0.2-0.6,19.5-71.2,34.1-143.2c7.6-35.9,13.8-72,15.5-100.1c1.1-13.8,1.1-25.7-0.8-35.3
					c-2.2-10.9-10-23.1-21.6-20.2c-9.7,2.8-14.3,12.9-17.4,20.4c-4.7,10.9-8.6,25.8-12.1,43.5c-7.1,35.5-12.4,82.8-15.2,130.2
					c-1.8,34.2-2.1,68.6-0.4,98.8c-26,42.8-45.3,60.9-54.9,63.9c-10.4,3.5-14.9-7.8-17.4-14.7c-9.6-26.8-8.1-78.9-8.1-78.9
					c0-5.5-4.8-9.8-10.4-8.9c-3.5,0.7-6.3,3.2-6.9,6.7c0,0-6.4,29.8-16.4,59.3c-5.3,14.9-11.4,29.7-17.5,40.1
					c-6.4,10.5-13,15.1-15.7,15.4c-7.4-5.1-7.3-30.1-7.1-36.2c0.2-22.2,3.4-44.4,3.4-44.4c0.7-4.8-2.8-9.4-7.3-10.1
					c-4.8-0.7-9.4,2.8-10.1,7.6c0,0-2.4,17-3.2,36.9c-0.2,0.3-0.3,0.6-0.4,1c0,0-10.9,30.7-25.9,62.6c-7.3,15.6-15.9,32-24.1,44.5
					c-8.6,12.3-17.4,20.4-21.5,21.8c-5.2,1.6-8.7-3.5-10.5-6.7c-4.6-7.4-8.4-21-11.1-38.1c-2.5-16.1-3.9-35.2-4.3-56.1
					c1.4-4.2,22.9-70.6,40.4-139.2c43-11.6,87.2-20.3,132.2-26.2c4.9-0.4,8.1-5,7.7-9.6c-0.7-4.8-5-8.4-9.9-7.7
					c-24.3,3-48.4,7.1-72,12c-17.8,3.6-35.8,7.6-53.4,12.3c7.6-30.6,13.7-60.1,16.1-83.6c1.6-13.6,2.1-25.1,0-34
					c-2.1-10.4-9.6-18.5-19.1-17.7c-12.7,1.5-19.7,14.6-23.9,23.7c-5.5,12.5-10.6,29.3-14.8,49.3c-5.3,22.7-9.8,49.6-13.2,77.7
					c-33,10.4-65.5,22.3-97.6,35.5c-4.4,1.7-6.6,6.9-4.6,11.2c1.8,4.6,6.9,6.6,11.2,4.9c29.4-12.1,59-22.9,88.9-32.3
					c-1.4,14.7-2.7,29.9-3.8,45.1c-1.6,25-2.3,49.7-2,72.7c-0.2,0.3-0.3,0.5-0.4,0.8c0,0-8.7,19.8-21.3,39.2
					c-5.2,8.3-26.8,43.7-37.1,38c-5-2.8-6.9-16.3-7.8-23c-2-15.4-1.2-31.6-1.2-31.6c0.2-4.2-2.5-8.1-6.6-9.2c-4-0.8-8.3,1.2-10,5.1
					c0,0-8.8,19.2-20.4,38.2c-4.9,7.1-20.9,33.3-30.4,32.8c-7.4-6.5-4.8-28.9-3.7-35.5c3.6-21.8,14.5-47,29.3-58.6
					c10-7.9,16.4-6.4,22.2-4c5.8,2.7,9.5,7.2,9.5,7.2c2.9,3.6,8.6,4.3,12.1,1.1c3.8-3,4.4-8.4,1.4-12.2c0,0-6-7.6-16-11.9
					c-13.7-6.1-27.8-3.4-40,6.2c-20.6,15.8-31.7,44.1-35.6,69.3c-2.1,12.6-2.4,24.6-0.2,34.4c2.3,10,8.8,20.1,18.8,21.3
					c11.1,1.3,19.4-5.4,26.9-13.3c11.3-12.3,19-24.7,26.3-37.8c3,13.5,4.4,28.4,15.6,35.6c15.6,9.8,31.2-3.3,40.4-13.5
					c7.9-8.5,15.2-19.2,21.4-29.6c3-4.8,5.8-9.6,8.4-14.1c0.8,10.5,1.9,20.4,3.3,29.4c2.7,18.5,6.4,33.8,13.3,44.6
					c7.1,11.8,17.9,18.5,30.9,14.4c12.5-3.7,21.5-15.2,30.6-29c9.1-13.5,17.9-30.2,25.6-46.8c4.9-10.4,9.3-20.6,13.1-29.8
					c0.2,0.9,0.4,1.8,0.7,2.6c3,10.7,10.5,20.3,21.8,19.9c13.5-0.3,22.3-11.2,29.8-23.5s13.9-28,19.1-43.5c0.9-2.4,1.5-4.7,2.1-7.1
					c1.5,10.2,4.1,20.2,6.8,29.3c6.7,20.5,20.8,31.4,39.5,25.1c15.6-5.3,31.3-21,51.7-51.7c0.1,1.2,0.3,2.5,0.5,3.7
					c2.3,18.1,5.5,33.5,10.9,45.1c4.8,11.2,13.3,21.6,25.3,22c13.3,0.3,24.3-8.6,34-19.4c10-10.9,19.3-24.7,27.3-38.5
					c2-3.4,3.9-6.7,5.7-10c0.1,0.6,0.3,1.3,0.4,1.9c2.3,10,8.8,20.1,18.8,21.3c11.1,1.3,19.4-5.4,26.9-13.3
					c11.3-12.3,19-24.7,26.3-37.8c3,13.5,4.4,28.4,15.6,35.6c15.6,9.8,31.2-3.3,40.4-13.5c7.9-8.5,15.2-19.2,21.4-29.6
					c3-4.8,5.8-9.6,8.4-14.1c0.8,10.5,1.9,20.4,3.3,29.4c2.7,18.5,6.4,33.8,13.3,44.6c7.1,11.8,17.9,18.5,30.9,14.4
					c12.5-3.7,21.5-15.2,30.6-29c9.1-13.5,17.9-30.2,25.6-46.8c2.7-5.7,5.3-11.4,7.7-16.9c0.4,3.1,1,6.2,1.8,9.2
					c5.8,21.5,25.5,21.9,43,11.1c16.2-10.2,37.3-29.9,66.4-65.6c0,1.8,0.1,3.5,0.1,5.2c0.9,17.8,8.8,39.2,26.7,39.7
					c11.9,0.1,21-8.2,26.8-17.9c5.4-8.9,8.6-20,10.4-31.7c27.9-3.2,55.4-18.2,75.3-33.5l1.1,66.3c0.3,4.4,3.5,7.9,7.8,8.4
					c4.5,0.5,8.4-2.3,9.4-6.6c0,0,6.7-52.3,16.5-77.6c4.9-12.6,10.4-25.1,15.9-33.4c2.5-3.8,7.5-10.7,9.8-10.3
					c2.1,0.7,3.3,13.2,3.8,18.6c1.4,13.6,1.5,30.4,6.2,43.8c6.8,18.3,18.7,25,36.3,15.3c15.6-8.8,34.9-28.2,63.9-67
					c5.1,4.4,10.8,8.4,16,12.5c3.3,2.6,6.3,5.1,9.1,7.8c-4.1,4.2-8.3,8.3-11.9,12.4c-13.5,15-24.1,29.8-29.9,43.2
					c-5.5,12.2-8.8,28.7,1.9,36.4c15,11.3,36-5.2,46.5-14.8c14.9-13.6,28.7-33,26.5-54.7c-0.8-8.1-3.9-15.2-8.3-21.6
					c22.1-19.2,48.2-36.2,72.8-43.4C2188.9,169,2191.5,164,2190.3,159.3z M1565.3,76.8c4.4-19.2,8.9-35,13.6-46
					c2.1-4.8,5.1-10.2,9.4-13.5c3,10.7,1.8,23.7,0.9,32.8c-2.8,24.1-9.7,56.8-18.1,90.3c-5.8,1.5-11.5,3.2-17.5,5
					C1557,120.3,1560.8,96.8,1565.3,76.8z M1547,215.9c0.9-17.1,2.6-34.6,4.4-51.6c4.9-1.6,9.9-3.1,14.6-4.4
					c-6.5,25.1-13.4,49.5-19.6,70.4C1546.5,225.7,1546.6,220.9,1547,215.9z M1015.4,189.3c4.4-19.2,8.9-35,13.6-46
					c2.1-4.8,5.1-10.2,9.4-13.6c3,10.7,1.8,23.7,0.9,32.8c-2.8,24.1-9.7,56.8-18.1,90.3c-5.8,1.5-11.5,3.2-17.5,5
					C1007.1,232.8,1010.9,209.3,1015.4,189.3z M997.1,328.4c0.9-17.1,2.6-34.6,4.4-51.6c4.9-1.6,9.9-3.1,14.6-4.4
					c-6.5,25.1-13.4,49.5-19.6,70.4C996.6,338.2,996.7,333.5,997.1,328.4z M1282.9,242.8c2.4-46.4,7.8-93.2,14.9-127.6
					c3.3-16.4,8.1-36.3,15.3-48.5c3.5,11.7,2.8,25.7,2,35.6c-1.8,26.4-7.8,62.2-15.2,97.8c-6,28.9-12.5,56.8-18.3,81
					C1281.8,268.5,1282.2,255.7,1282.9,242.8z M1790,291.6c-3.9,6.6-7.8,9.1-11.4,9c-11.7-1.8-9.9-36.4-7.8-44.6
					c7.8,5.6,16.9,9.6,27,11.6C1796.4,277,1793.7,285.5,1790,291.6z M1774.7,235.7c-5.9-7.1-6.6-16.1-4.1-19.9
					c8.6-13.4,23.2,6.3,25.9,17.1c1,5,2,10.9,2.4,17C1789,247.7,1780.8,242.8,1774.7,235.7z M2081.6,277.3
					c-8.4,7.5-17.1,12.6-24,13.8c-0.8-3.7,1.5-11.7,3.2-15.6c4.8-10.4,14.4-24.5,27-38.5c3.7-3.8,7.3-7.9,10.5-11
					c2.1,3.7,3.7,7.3,4.3,11.3C2103.6,249.5,2094,266.2,2081.6,277.3z"/>
			</g>
		</g>
	</g>
</g>
</svg>
