<svg xmlns="http://www.w3.org/2000/svg" width="460.15" height="460.15" viewBox="0 0 460.15 460.15" xml:space="preserve"><path d="M223.268 83.723a76 76 0 0 1 7.233 3.781c5.137-11.91 12.471-23.093 22.185-32.801 11.821-11.814 25.976-20.398 41.385-25.516C277.612 11.291 254.069 0 227.83 0c-27.246 0-51.615 12.154-68.132 31.278 16.667 4.937 31.949 13.956 44.581 26.595a106 106 0 0 1 18.989 25.85m167.935 130.069a77.8 77.8 0 0 1-11.201 20.769 82 82 0 0 1 4.894 7.297c6.191 4.023 12.026 8.673 17.38 14.015 12.632 12.644 21.648 27.92 26.602 44.587 19.119-16.511 31.27-40.885 31.27-68.139 0-27.81-12.627-52.664-32.436-69.18-5.122 15.324-13.67 29.4-25.428 41.16-3.491 3.468-7.225 6.57-11.081 9.491m-93.697 218.307c-16.76-4.93-32.124-13.958-44.819-26.649-9.935-9.942-17.421-21.412-22.572-33.631a105.8 105.8 0 0 1-22.662 33.631c-11.818 11.813-25.97 20.394-41.378 25.516 16.458 17.9 40.002 29.186 66.24 29.186 25.677-.002 48.785-10.801 65.191-28.053M31.272 300.45c4.939-16.667 13.96-31.951 26.597-44.578 10.466-10.472 22.758-18.398 36.135-23.644-14.593-5.186-28.016-13.491-39.297-24.767-11.814-11.813-20.398-25.968-25.513-41.378C11.293 182.547.004 206.091.004 232.32c-.008 27.246 12.146 51.612 31.268 68.13M243.489 97.085c9.634 8.756 17.08 19.837 21.428 32.384 13.545-12.263 31.338-19.879 50.91-20.271.537-.006 1.059-.076 1.595-.076 2.164 0 4.28.15 6.389.322a78.03 78.03 0 0 1 43.016 17.268c2.974 2.427 5.727 5.11 8.323 7.947 2.452 2.675 4.753 5.479 6.824 8.472 8.708 12.629 13.846 27.912 13.846 44.393 0 .18-.023.358-.032.539 8.789-10.227 14.92-21.925 18.371-34.242.721-2.621 1.362-5.26 1.847-7.923a95 95 0 0 0 1.143-8.153c2.344-25.718-6.304-52.255-25.988-71.941-17.589-17.587-40.647-26.377-63.694-26.377-2.224 0-4.432.154-6.641.314q-4.286.315-8.531 1.036a92 92 0 0 0-8.062 1.767c-14.812 3.939-28.826 11.64-40.443 23.259-9.185 9.192-15.908 19.884-20.301 31.282m72.923 322.879c2.926.36 5.855.581 8.785.649.765.016 1.526.116 2.284.116 23.05 0 46.104-8.801 63.693-26.381 18.575-18.574 27.23-43.229 26.192-67.562a88 88 0 0 0-.741-8.344 94 94 0 0 0-1.511-8.215c-3.266-14.062-9.942-27.463-20.049-38.948.444 3.383.77 6.809.77 10.304 0 14.391-3.972 27.848-10.764 39.453a78.4 78.4 0 0 1-13.325 16.959 78.4 78.4 0 0 1-34.5 19.364 76 76 0 0 1-7.683 1.595 78 78 0 0 1-7.802.821c-1.442.084-2.87.221-4.324.221-35.955 0-66.247-24.35-75.46-57.391-1.972 6.027-3.334 12.207-4.012 18.466.293 3.17.469 6.356.469 9.586 0 3.227-.176 6.416-.469 9.59 2.108 19.757 10.688 38.961 25.836 54.101 12.636 12.627 28.104 20.654 44.351 24.213a91 91 0 0 0 8.26 1.403M68.97 266.973c-12.351 12.343-20.27 27.406-23.942 43.256a93 93 0 0 0-1.509 8.215 91 91 0 0 0-.745 8.344c-1.046 24.317 7.622 48.987 26.196 67.562 17.583 17.58 40.64 26.381 63.69 26.381 2.214 0 4.438-.16 6.642-.32a88 88 0 0 0 8.54-1.042 92 92 0 0 0 8.065-1.764c14.812-3.943 28.825-11.638 40.445-23.263 15.198-15.192 23.792-34.48 25.858-54.313.465-4.488.525-8.992.323-13.488-.197.276-.419.537-.613.813-14.256 19.732-37.381 32.637-63.524 32.637-5.244 0-10.365-.546-15.326-1.527a77 77 0 0 1-7.632-1.924 78 78 0 0 1-7.52-2.721c-9.299-3.939-17.679-9.63-24.744-16.651-2.3-2.283-4.412-4.736-6.412-7.281a78 78 0 0 1-5.244-7.59c-7.271-11.886-11.535-25.792-11.535-40.72 0-9.598 1.821-18.774 4.995-27.282-5.669 3.568-11.071 7.74-16.008 12.678M40.782 147.846a91 91 0 0 0 1.763 8.065c3.943 14.812 11.646 28.826 23.263 40.443 12.465 12.467 27.687 20.42 43.703 24.055a78.4 78.4 0 0 1 23.321-12.85c-12.601-13.922-20.355-32.306-20.355-52.514 0-3.29.269-6.514.667-9.702a79 79 0 0 1 1.357-7.732 79 79 0 0 1 2.128-7.544 78.2 78.2 0 0 1 8.065-16.861c1.947-3.064 4.056-5.999 6.397-8.756 2.182-2.575 4.555-4.959 7.041-7.237 13.942-12.733 32.422-20.568 52.746-20.568 3.242 0 6.432.261 9.572.644-2.246-2.863-4.625-5.669-7.266-8.306-12.347-12.347-27.411-20.27-43.26-23.942a90 90 0 0 0-8.211-1.507 90 90 0 0 0-8.346-.747c-1.286-.054-2.575-.181-3.871-.181-23.049 0-46.105 8.794-63.688 26.377-19.282 19.28-27.917 45.124-26.066 70.331a88 88 0 0 0 1.04 8.532"/><path d="M232.285 108.084c-.066-.054-.129-.116-.193-.172-2.149-1.883-4.404-3.643-6.796-5.222a76 76 0 0 0-3.415-2.078 62 62 0 0 0-10.231-4.665c-6.514-2.3-13.493-3.618-20.789-3.618-19.947 0-37.71 9.395-49.207 23.962a63 63 0 0 0-5.43 8.083c-1.749 3.11-3.21 6.382-4.42 9.79-.101.281-.211.563-.315.848-.848 2.503-1.575 5.056-2.104 7.692-.533 2.669-.839 5.41-1.02 8.181-.092 1.383-.21 2.755-.21 4.152 0 19.532 8.989 37 23.033 48.508 2.368-.218 4.765-.361 7.199-.361 6.051 0 11.924.751 17.591 2.066 1.655.385 3.316.784 4.929 1.271.387.118.771.218 1.154.336.283-.617.583-1.23.89-1.835.24-.487.455-.99.705-1.469 1.563-2.897 3.385-5.626 5.378-8.217a61 61 0 0 1 4.531-5.302c2.104-2.183 4.38-4.182 6.789-6.033a62 62 0 0 1 5.566-3.812 65 65 0 0 1 3.43-1.961 61 61 0 0 1 8.494-3.619 62 62 0 0 1 9.76-2.42c.996-.165 1.992-.345 3.005-.463 2.238-.249 4.5-.399 6.801-.399.573 0 1.126.068 1.691.084.521.021 1.046.059 1.574.08.689-3.326 1.663-6.546 2.766-9.708 2.256-6.472 5.262-12.585 9.049-18.16a62.5 62.5 0 0 0-13.762-29.024 64.5 64.5 0 0 0-6.443-6.515m128.899 34.614a63 63 0 0 0-8.144-6.721 62.4 62.4 0 0 0-10.227-5.738c-4.877-2.166-10.075-3.699-15.509-4.561a62 62 0 0 0-8.071-.764c-.608-.016-1.198-.092-1.812-.092-2.239 0-4.439.122-6.624.36-16.827 1.775-31.69 10.235-41.89 22.67-3.033 3.705-5.602 7.797-7.742 12.139-2.208 4.504-3.939 9.295-5.029 14.325.569.18 1.118.418 1.671.613q.337.115.661.247c2.497.924 4.938 1.97 7.266 3.192.646.345 1.291.717 1.92 1.086a61 61 0 0 1 7.51 5.085c.164.128.341.235.493.369 2.132 1.721 4.123 3.603 6.003 5.597a63 63 0 0 1 5.475 6.65 61 61 0 0 1 5.771 10.032c7.722-2.551 15.945-3.979 24.517-3.979 14.644 0 28.329 4.114 40.075 11.139a80 80 0 0 1 7.979 5.448 82 82 0 0 1 3.703 3.078c1.462-2.144 2.769-4.39 3.963-6.704a62.5 62.5 0 0 0 4.669-11.986c1.463-5.31 2.308-10.874 2.308-16.645.015-17.575-7.263-33.449-18.936-44.84m-238.667 87.546a63 63 0 0 0-4.811 3.731c-1.216 1.05-2.418 2.104-3.55 3.237-2.104 2.092-4.001 4.377-5.799 6.753-7.917 10.495-12.666 23.499-12.666 37.618 0 14.623 5.063 28.052 13.481 38.715a63 63 0 0 0 5.957 6.564 64 64 0 0 0 7.394 6.071 62.5 62.5 0 0 0 8.975 5.206c2.356 1.126 4.772 2.14 7.279 2.957a62.4 62.4 0 0 0 19.626 3.191c27.601 0 51.048-17.954 59.402-42.779 1.162-3.442 1.994-7.014 2.545-10.692-2.994-.873-5.873-1.995-8.652-3.298a62 62 0 0 1-6.312-3.418c-2.677-1.672-5.229-3.503-7.606-5.543a62 62 0 0 1-6.147-6.103 58 58 0 0 1-2.593-3.166c-1.984-2.609-3.813-5.33-5.378-8.22-1.13-2.116-2.112-4.324-2.99-6.56a62 62 0 0 1-2.032-6.18 62 62 0 0 1-1.114-4.709c-.569-2.974-.874-6.039-.982-9.145-.024-.722-.112-1.435-.112-2.172 0-.085.016-.169.016-.261.008-1.607.112-3.194.244-4.783.086-1.028.213-2.038.347-3.047.099-.793.227-1.583.359-2.369-1.593-.509-3.218-.912-4.859-1.294a62 62 0 0 0-11.225-1.515c-.972-.05-1.923-.15-2.905-.15-1.152 0-2.276.112-3.415.172-2.711.15-5.386.431-7.993.92a62 62 0 0 0-8.876 2.346 61 61 0 0 0-6.392 2.607 62 62 0 0 0-9.216 5.316m174.267 15.83c-.044.176-.101.353-.145.536a60 60 0 0 1-2.34 7.515c-.942 2.452-1.983 4.86-3.227 7.153-1.174 2.168-2.509 4.224-3.931 6.224a60.4 60.4 0 0 1-5.475 6.647c-.537.565-1.05 1.143-1.595 1.688a73 73 0 0 1-4.4 3.907c-.697.569-1.442 1.09-2.164 1.627-2.544 1.871-5.197 3.57-8.011 5.037-3.206 1.663-6.548 3.09-10.043 4.176 4.377 30.328 30.473 53.728 61.983 53.728.389 0 .766-.048 1.15-.06a61 61 0 0 0 7.91-.678c2.609-.381 5.174-.901 7.683-1.606a61.8 61.8 0 0 0 14.475-6.06 61.5 61.5 0 0 0 9.262-6.5 62.6 62.6 0 0 0 7.265-7.262c9.317-10.94 14.968-25.09 14.968-40.547 0-10.227-2.517-19.869-6.885-28.396-1.226-2.396-2.561-4.721-4.071-6.929-1.479-2.164-3.122-4.188-4.853-6.136-.093-.104-.185-.204-.285-.32a64 64 0 0 0-5.29-5.242 57 57 0 0 0-3.702-3.014c-2.269-1.703-4.617-3.29-7.098-4.676-.737-.419-1.503-.793-2.271-1.182a62 62 0 0 0-20.162-6.216c-2.661-.347-5.342-.579-8.095-.579-.108 0-.208.014-.309.014-6.869.032-13.461 1.208-19.641 3.29.032.172.061.353.084.525a64 64 0 0 1 .67 6.3c.036.705.092 1.411.104 2.124.017.393.064.777.064 1.174 0 1.655-.116 3.282-.248 4.905a63 63 0 0 1-1.377 8.833"/><path d="M252.334 189.619a44 44 0 0 0-2.665-.848 49 49 0 0 0-2.77-.715c-.837-.18-1.694-.3-2.553-.431a45 45 0 0 0-4.399-.463c-.301-.016-.598-.038-.906-.05-.076 0-.152-.008-.244-.016-.461-.014-.922-.068-1.387-.068-3.15 0-6.211.323-9.179.936-3.917.808-7.63 2.166-11.115 3.917-1.619.815-3.206 1.701-4.705 2.699-6.876 4.569-12.403 10.982-15.954 18.517-.336.717-.673 1.431-.981 2.164-.295.719-.547 1.467-.804 2.21q-.014.034-.028.074c-.345.996-.651 2-.924 3.027a46 46 0 0 0-1.03 4.921 46 46 0 0 0-.399 3.424c-.088 1.118-.172 2.244-.172 3.387 0 .368.046.705.052 1.073a44.9 44.9 0 0 0 2.493 13.77 45.37 45.37 0 0 0 13.808 19.965c2.959 2.469 6.248 4.505 9.774 6.164a45 45 0 0 0 2.393 1.065c.621.253 1.256.465 1.894.689 2 .697 4.051 1.286 6.171 1.699 2.414.469 4.913.729 7.447.789.145 0 .293.032.438.032.276.009.545.04.821.04.613 0 1.202-.072 1.815-.1a45.6 45.6 0 0 0 6.472-.689 44 44 0 0 0 7.895-2.256c.545-.205 1.106-.397 1.64-.63a44 44 0 0 0 4.087-2.008 42 42 0 0 0 4.425-2.837 45 45 0 0 0 5.566-4.66 45.4 45.4 0 0 0 5.642-6.809c.161-.229.289-.474.438-.718q.767-1.176 1.463-2.4c1.29-2.276 2.348-4.677 3.237-7.169.305-.89.59-1.764.85-2.669.024-.068.032-.137.053-.213.477-1.671.829-3.406 1.105-5.153.221-1.411.381-2.85.461-4.309.052-.889.137-1.763.137-2.668 0-.95-.093-1.864-.145-2.798a47 47 0 0 0-.517-4.584 45 45 0 0 0-.802-3.825c-.101-.375-.192-.751-.293-1.13-.528-1.859-1.142-3.681-1.896-5.432-.136-.331-.32-.645-.465-.966a45 45 0 0 0-3.197-5.831c-1.764-2.717-3.787-5.256-6.071-7.528a46 46 0 0 0-9.799-7.38c-.773-.441-1.579-.828-2.376-1.218-.754-.369-1.486-.755-2.269-1.074-.813-.338-1.671-.619-2.532-.917"/></svg>